<svg id="skyline" xmlns="http://www.w3.org/2000/svg" viewBox="0 0 1920 1080">
	<defs>
		<style>.cls-1{fill:#fff;}</style>
	</defs>
	<title>cover smart city with animation</title>
	
	<path class="cls-1" d="M834.57,833.48c-9.78-9.26-14.67,9.26-24.45,0V818c9.78,9.26,14.67-9.26,24.45,0C834.57,824.22,834.57,827.31,834.57,833.48Z"/>
	<circle class="cls-1" cx="1513.23" cy="800.7" r="2.13"/>
	<circle class="cls-1" cx="1513.23" cy="788.85" r="2.13"/>
	<circle class="cls-1" cx="1513.23" cy="794.77" r="3.8"/>
	<path class="cls-1" d="M1516,783.51a4.93,4.93,0,0,0-3.39-7.18,5,5,0,0,1-4.43,8.52A4.93,4.93,0,0,0,1516,783.51Z"/>
	<path class="cls-1" d="M1880.52,940.64v13.91H1836V940.64h-35.36V909l-35.82-21.92h0v-56h-21v14.17h-11.54V810.7h1.89v-2.87h-1.89V792.2h1.89v-2.87h-1.89v-7.87h1.89v-2.87h-1.89V754.17h-9v-8.7h-0.87v-8.25l-7.62-8.87h-2.06v-1.07a1.6,1.6,0,0,0,0-3.15v-1.19a1.11,1.11,0,0,0,0-2.14v-1.5a3.13,3.13,0,0,0-.16-6.11,3.14,3.14,0,0,1-2.79,5.37,3,3,0,0,0,2.33.83v1.4a1.11,1.11,0,0,0,0,2.14v1.19a1.6,1.6,0,0,0,0,3.15v1.07H1710l-7.62,8.88v8.25h-0.87v8.7h-9v24.41h-1.89v2.88h1.89v7.88h-1.89v2.88h1.89v15.63h-1.89v2.88h1.89v34.55h-9.7V831.09h-21v56h0L1626,909v0.84h-30.06l-27.3-9.75V875.33h2.88v-2.75h-10.25a50,50,0,0,0,2-14c0-26.74-21-51.11-47.39-52.63h1v-3.13h-7.26V806h1c-26.4,1.52-47.39,25.89-47.39,52.63a50,50,0,0,0,2,14H1455v2.75h2.88v24.75l-27.3,9.75H1387v30.81h-40.73v13.91h-44.52V940.64h-44.52v13.91h-22.75l-118.22-179.7-0.42.27-6.45-25.82,1.34-9-6.68,8.35,8.43,51.34-0.49-.07c-2.78,18.91-23.51,38.13-61.63,57.12-30.59,15.24-72.35,30.35-124.11,44.9C892,911.55,857.82,919.66,828.76,926V886.82h4.94L839,869.7h14.14v-5.5h-3.31V859.4h8.52v-11H811V814.73H809.2v33.66H511v11h8.52v4.79h-3.31v5.5H530.3l5.3,17.12h4.94v53.82H525.13v13.91H480.61V940.64H436.08v13.91h-28.6L395.4,855.72h2.28a28.9,28.9,0,1,0-56.75,0H343l-11.93,98.83H302.52V940.64H258v13.91H222.9l2.33-8.53h-6.7V917.41c0-.09,0-0.17,0-0.26l0.14,0.18,8.71-9.2L217.2,896.44l10.46-20.06q-2-2-3.49-3.4a75.35,75.35,0,0,0-10.55-7.91l-7.15,9.34,3.39,2.31a22.2,22.2,0,0,1,3.49,2.68l-4,7.77q-5.23-5.59-10.82-10.91-4.13-3.94-8.9-8.07-3.58-3.12-3.67-3.12l-8.25,9.81q1.19,1.1,1.83,1.65a50.54,50.54,0,0,1,4.22,4l-6.18,31.3c-0.14-.12-0.27-0.23-0.42-0.33a6.2,6.2,0,0,0-1.09-.6V872.42a5.91,5.91,0,0,0-2.38-5.23,8.32,8.32,0,0,0-4.86-1.28H141.18a11.14,11.14,0,0,1-4.31-.92,9.7,9.7,0,0,1-1.74-.92l-4.22,11q1.1,0.55,3.38,1.74a12.21,12.21,0,0,0,4.66.83h25.33v32.6H145.95V885.81H134.21v27.61h2.48l-2.3,6q1.1,0.55,3.38,1.74a12.21,12.21,0,0,0,4.66.83h25.33v32.56H149.42v-24.4H137.68v24.4H124.43V940.64H79.91v13.91H35.39V940.64H0v136.67H1925V940.64h-44.52Zm-1673.72,0H179.5V916.76a9,9,0,0,0-.1-1.35h8.72l-1.5,4a16,16,0,0,0,2.38,1.28,11.38,11.38,0,0,0,4.59,1.28H206.8v18.65Zm5.5-30.39h-16a10.09,10.09,0,0,1-3.76-.92,12.55,12.55,0,0,1-1.83-.92l-1.86,5,4.65-24q0.09,0,3.94,3.94,4.68,4.77,9.54,10.18,3.12,3.47,5.91,6.78ZM901,940.64H881.3v5.89c-14.09,3.22-22.81,4.79-23,4.83l0.17,1c0.23,0,8.88-1.6,22.86-4.79v7H836.78V940.64h-8V927c29.12-6.34,63.39-14.47,97.72-24.12,51.83-14.57,93.65-29.7,124.29-45,37.48-18.68,58.3-37.67,61.93-56.46l1.73,10.56c-6.4,20.19-21.24,39.36-44.28,57.14-22.14,17.07-51.84,32.9-88.28,47a713.22,713.22,0,0,1-76.51,24.44H901Zm89,0v13.91H945.56V940.64H909.28a708.24,708.24,0,0,0,72.94-23.5c36.53-14.17,66.32-30,88.54-47.18,22.52-17.37,37.27-36.08,44-55.79l0.81,4.94c-7.69,41.57-36.43,72.55-60.37,91.81a272.37,272.37,0,0,1-46.09,29.72H990.08Zm44.52,13.91V940.64h-23.28a273.22,273.22,0,0,0,44.51-28.92c23.58-19,51.78-49.25,60.22-89.81l3,18.21c-6.69,29.61-24,59-39.45,80.73-9.27,13-18.72,24.6-26.67,33.71h-18.32Zm44.52-13.91v13.91h-24.87c7.85-9,17.08-20.36,26.15-33.12,15.12-21.27,32-49.76,39.07-78.72l1.32,8-4.86,89.9h-36.81Zm89,13.91h-44.52V940.64h-6.71l4.61-85.31,4.19,25.52,42.44,62.51v11.19Zm44.52,0V940.64h-30.11l-42.82-69.81-15.66-62.65,0.09-1.62-0.5,0-7.48-29.94,117.07,178h-20.57ZM1697,758.7h-4v-4.06h4v4.06Zm4.5,0h-4v-4.06h4v4.06Zm25.78,0h-4v-4.06h4v4.06Zm4.5,0h-4v-4.06h4v4.06Z"/>
	<polygon class="cls-1" points="432.77 797.35 422.95 787.53 369.3 841.18 315.65 787.53 305.83 797.35 359.48 851 305.83 904.65 315.65 914.47 369.3 860.82 422.95 914.47 432.77 904.65 379.12 851 432.77 797.35">
		<animateTransform attributeName="transform"
		attributeType="XML"
		type = "rotate"
		from = "0 370 848"
		to = "360 370 848"
		dur = "13s"
		repeatCount = "indefinite" />
	</polygon>
	</svg>