<svg id="skyline" xmlns="http://www.w3.org/2000/svg" viewBox="0 0 1920 1080"><defs><style>.cls-1{fill:#fff;}.cls-2{fill:none;stroke:#fff;stroke-miterlimit:10;}</style></defs><title>cover smart city1</title><path class="cls-1" d="M1561.23,872.58a50,50,0,0,0,2-14c0-27.61-22.39-52.7-50-52.7s-50,25.09-50,52.7a50,50,0,0,0,2,14h96Z"/><rect class="cls-1" x="1454.98" y="872.58" width="116.5" height="2.75"/><rect class="cls-1" x="1457.86" y="875.33" width="110.75" height="27.5"/><polygon class="cls-1" points="1607.11 913.83 1419.36 913.83 1457.86 900.08 1568.61 900.08 1607.11 913.83"/><rect class="cls-1" x="1386.98" y="909.83" width="252.5" height="44.72"/><circle class="cls-1" cx="1513.23" cy="800.7" r="2.13"/><circle class="cls-1" cx="1513.23" cy="788.85" r="2.13"/><circle class="cls-1" cx="1513.23" cy="794.77" r="3.8"/><path class="cls-1" d="M1513.91,776.76a5,5,0,0,0-1.26-.43,5,5,0,0,1-4.43,8.52A5,5,0,1,0,1513.91,776.76Z"/><rect class="cls-1" x="1509.6" y="802.83" width="7.26" height="3.13"/><polygon class="cls-1" points="1800.63 909 1625.97 909 1661.79 887.08 1764.82 887.08 1800.63 909"/><path class="cls-1" d="M1713.33,713.46a3.12,3.12,0,0,0-.8-0.27,3.14,3.14,0,0,1-2.79,5.37A3.15,3.15,0,1,0,1713.33,713.46Z"/><rect class="cls-1" x="1692.51" y="758.7" width="39.75" height="86.5"/><rect class="cls-1" x="1690.62" y="807.83" width="43.54" height="2.88"/><rect class="cls-1" x="1690.62" y="789.33" width="43.54" height="2.88"/><rect class="cls-1" x="1690.62" y="778.58" width="43.54" height="2.87"/><rect class="cls-1" x="1701.51" y="745.47" width="21.75" height="13.25"/><rect class="cls-1" x="1702.39" y="737.22" width="20" height="13.25"/><polygon class="cls-1" points="1710.01 728.35 1702.38 737.23 1722.38 737.23 1714.76 728.35 1710.01 728.35"/><circle class="cls-1" cx="1712.39" cy="725.7" r="1.6"/><circle class="cls-1" cx="1712.39" cy="721.87" r="1.13"/><rect class="cls-1" x="1712.07" y="718.85" width="0.63" height="9.83"/><rect class="cls-1" x="1692.51" y="754.17" width="0.47" height="4.84"/><rect class="cls-1" x="1712.15" y="734.53" width="0.47" height="39.75" transform="translate(2466.79 -957.98) rotate(90)"/><rect class="cls-1" x="1731.79" y="754.17" width="0.47" height="4.84"/><rect class="cls-1" x="1727.29" y="754.17" width="0.47" height="4.84"/><rect class="cls-1" x="1697.01" y="754.17" width="0.47" height="4.84"/><rect class="cls-1" x="1661.81" y="845.26" width="102.99" height="41.82"/><rect class="cls-1" x="1661.81" y="831.09" width="21" height="41.82"/><rect class="cls-1" x="1743.8" y="831.09" width="21" height="41.82"/><rect class="cls-1" x="1625.97" y="908.99" width="174.67" height="71.58"/><rect class="cls-1" x="901.04" y="954.55" width="1024" height="122.76"/><rect class="cls-1" x="1880.52" y="940.64" width="44.52" height="16.86"/><rect class="cls-1" x="1791.48" y="940.64" width="44.52" height="16.86"/><rect class="cls-1" x="1702.43" y="940.64" width="44.52" height="16.86"/><rect class="cls-1" x="1613.39" y="940.64" width="44.52" height="16.86"/><rect class="cls-1" x="1524.35" y="940.64" width="44.52" height="16.86"/><rect class="cls-1" x="1435.3" y="940.64" width="44.52" height="16.86"/><rect class="cls-1" x="1346.26" y="940.64" width="44.52" height="16.86"/><rect class="cls-1" x="1257.21" y="940.64" width="44.52" height="16.86"/><rect class="cls-1" x="1168.17" y="940.64" width="44.52" height="16.86"/><rect class="cls-1" x="1079.13" y="940.64" width="44.52" height="16.86"/><rect class="cls-1" x="990.08" y="940.64" width="44.52" height="16.86"/><rect class="cls-1" x="901.04" y="940.64" width="44.52" height="16.86"/><rect class="cls-1" y="954.55" width="925.82" height="122.76"/><rect class="cls-1" x="881.3" y="940.64" width="44.52" height="16.86"/><rect class="cls-1" x="792.26" y="940.64" width="44.52" height="16.86"/><rect class="cls-1" x="703.21" y="940.64" width="44.52" height="16.86"/><rect class="cls-1" x="614.17" y="940.64" width="44.52" height="16.86"/><rect class="cls-1" x="525.13" y="940.64" width="44.52" height="16.86"/><rect class="cls-1" x="436.08" y="940.64" width="44.52" height="16.86"/><rect class="cls-1" x="347.04" y="940.64" width="44.52" height="16.86"/><rect class="cls-1" x="258" y="940.64" width="44.52" height="16.86"/><rect class="cls-1" x="168.95" y="940.64" width="44.52" height="16.86"/><rect class="cls-1" x="79.91" y="940.64" width="44.52" height="16.86"/><rect class="cls-1" y="940.64" width="35.39" height="16.86"/><path class="cls-1" d="M397.68,855.72a28.9,28.9,0,1,0-56.75,0h56.75Z"/><polygon class="cls-1" points="395.39 855.72 343.04 855.72 330.74 957.64 407.86 957.64 395.39 855.72"/><polyline class="cls-1" points="1125.73 880.85 1104.03 748.64 1110.71 740.3 1109.38 749.31 1139.76 870.83 1197.51 964.98 1181.49 962.98"/><path class="cls-2" d="M1112.46,800c-12.29,83.65-363,142.13-363,142.13"/><path class="cls-2" d="M858.35,951.85S1101.72,908.67,1117.74,800"/><path class="cls-2" d="M1117.74,806.53c-7,93.21-119.18,139.68-119.18,139.68"/><path class="cls-2" d="M1074.43,946.21s55.15-81.68,45.4-141.7"/><line class="cls-2" x1="1115.83" y1="951.85" x2="1123.68" y2="806.53"/><line class="cls-2" x1="1115.83" y1="775.13" x2="1268.07" y2="1006.54"/><rect class="cls-1" x="510.95" y="848.39" width="347.4" height="11.01"/><rect class="cls-1" x="540.54" y="869.7" width="288.22" height="86.44"/><rect class="cls-1" x="519.47" y="853.9" width="330.37" height="13.05"/><rect class="cls-1" x="516.16" y="864.19" width="336.99" height="5.5"/><polygon class="cls-1" points="833.71 886.82 821.88 886.82 821.88 869.7 839.01 869.7 833.71 886.82"/><polygon class="cls-1" points="535.6 886.82 547.42 886.82 547.42 869.7 530.29 869.7 535.6 886.82"/><rect class="cls-1" x="809.2" y="814.73" width="1.84" height="33.66"/><path class="cls-1" d="M834.57,833.48c-9.78-9.26-14.67,9.26-24.45,0V818c9.78,9.26,14.67-9.26,24.45,0C834.57,824.22,834.57,827.31,834.57,833.48Z"/><path class="cls-1" d="M179.5,957.76H167.76V922H142.43a12.21,12.21,0,0,1-4.66-.83q-2.29-1.19-3.38-1.74l4.22-11a9.7,9.7,0,0,0,1.74.92,11.14,11.14,0,0,0,4.31.92h27.61a8.32,8.32,0,0,1,4.86,1.28,5.91,5.91,0,0,1,2.38,5.23v41Zm-30.08,0H137.68V930.15h11.74v27.61Z"/><path class="cls-1" d="M225.23,946L222,957.76H181.94L185.15,946H206.8V922H193.59a11.38,11.38,0,0,1-4.59-1.28,16,16,0,0,1-2.38-1.28l4.13-11a12.55,12.55,0,0,0,1.83.92,10.09,10.09,0,0,0,3.76.92h16q3.48,0,4.86,1.88a8.8,8.8,0,0,1,1.38,5.27V946h6.7Z"/><path class="cls-1" d="M176,913.42H164.29V877.65H139a12.21,12.21,0,0,1-4.66-.83q-2.29-1.19-3.38-1.74l4.22-11a9.7,9.7,0,0,0,1.74.92,11.14,11.14,0,0,0,4.31.92h27.61a8.32,8.32,0,0,1,4.86,1.28,5.91,5.91,0,0,1,2.38,5.23v41Zm-30.08,0H134.21V885.81h11.74v27.61Z"/><path class="cls-1" d="M227.65,876.38L217.2,896.44l10.18,11.68-8.71,9.2q-5.14-6.58-11.65-13.83-4.86-5.41-9.54-10.18-3.85-3.94-3.94-3.94l-5,26H176.84l6.88-34.85a50.54,50.54,0,0,0-4.22-4q-0.64-.55-1.83-1.65l8.25-9.81q0.09,0,3.67,3.12,4.77,4.13,8.9,8.07,5.59,5.32,10.82,10.91l4-7.77a22.2,22.2,0,0,0-3.49-2.68l-3.39-2.31,7.15-9.34A75.35,75.35,0,0,1,224.17,873Q225.63,874.36,227.65,876.38Z"/></svg>